<svg xmlns="http://www.w3.org/2000/svg" width="220" height="90" viewBox="0 0 220 90">
<defs>
  <linearGradient id="sky" x1="0" y1="0" x2="1" y2="1">
    <stop offset="0" stop-color="#9ae6ff"/>
    <stop offset="1" stop-color="#ffe08a"/>
  </linearGradient>
  <linearGradient id="sand" x1="0" y1="0" x2="1" y2="0">
    <stop offset="0" stop-color="#ffd37a"/>
    <stop offset="1" stop-color="#ff9fb0"/>
  </linearGradient>
</defs>

<rect x="2" y="2" width="216" height="86" rx="22" fill="url(#sky)" stroke="rgba(15,23,42,.12)" stroke-width="2"/>

<circle cx="170" cy="28" r="14" fill="#ff6b6b"/>
<g stroke="#ff6b6b" stroke-width="3" stroke-linecap="round" opacity="0.9">
  <line x1="170" y1="6" x2="170" y2="0"/>
  <line x1="170" y1="56" x2="170" y2="62"/>
  <line x1="148" y1="28" x2="142" y2="28"/>
  <line x1="198" y1="28" x2="204" y2="28"/>
  <line x1="154" y1="12" x2="150" y2="8"/>
  <line x1="186" y1="44" x2="190" y2="48"/>
  <line x1="186" y1="12" x2="190" y2="8"/>
  <line x1="154" y1="44" x2="150" y2="48"/>
</g>

<path d="M18 62 L62 28 L106 62 Z" fill="rgba(15,23,42,.10)"/>
<path d="M52 62 L92 34 L132 62 Z" fill="rgba(15,23,42,.14)"/>

<path d="M10 72 C40 60, 70 78, 100 68 C130 58, 160 82, 210 66 L210 88 L10 88 Z" fill="url(#sand)"/>
<path d="M10 72 C40 60, 70 78, 100 68" fill="none" stroke="rgba(15,23,42,.10)" stroke-width="2"/>
</svg>